<svg width="200" height="100" viewBox="0 0 200 100" fill="none" xmlns="http://www.w3.org/2000/svg">
<mask id="mask0_1772_1978" style="mask-type:luminance" maskUnits="userSpaceOnUse" x="7" y="38" width="186" height="24">
<path d="M192.763 38H7V62H192.763V38Z" fill="white"/>
</mask>
<g mask="url(#mask0_1772_1978)">
<path d="M53.877 57.7169H48.6758V40.7876H64.119V57.7253H58.901V45.2733H53.8854V57.7253L53.877 57.7169Z" fill="black"/>
<path d="M77.8925 45.4757C78.9291 46.0755 79.7553 46.8949 80.3708 47.9255C80.9859 48.9561 81.2896 50.0713 81.2896 51.2877C81.2896 52.5042 80.9859 53.6362 80.3708 54.6668C79.7553 55.6974 78.9375 56.5169 77.9009 57.1251C76.8639 57.7333 75.7344 58.0375 74.5122 58.0375C73.5087 58.0375 72.6322 57.8094 71.8567 57.3532V62.0079H66.9844V44.8337H70.4154L71.0812 45.8474C71.9832 44.9942 73.1212 44.5718 74.5038 44.5718C75.7176 44.5718 76.8472 44.8759 77.8837 45.4757H77.8925ZM75.2877 53.3405C75.6501 53.1462 75.9367 52.8759 76.1475 52.5295C76.3582 52.1832 76.4592 51.7777 76.4592 51.3299C76.4592 50.8822 76.3498 50.4767 76.1391 50.1135C75.9283 49.7502 75.6334 49.4715 75.2622 49.2687C74.8914 49.066 74.4783 48.9646 74.0232 48.9646C73.5678 48.9646 73.1719 49.066 72.7923 49.2687C72.4215 49.4715 72.1265 49.7587 71.9158 50.1135C71.705 50.4683 71.604 50.8738 71.604 51.3215C71.604 51.7693 71.7134 52.1578 71.9241 52.5127C72.1349 52.859 72.4299 53.1378 72.8007 53.3321C73.1719 53.5264 73.585 53.6277 74.04 53.6277C74.495 53.6277 74.9165 53.5348 75.2793 53.3405H75.2877Z" fill="black"/>
<path d="M96.6924 44.8345V57.7173H91.862V51.7785L87.6977 57.7173H83.1543V44.8345H87.9759V50.0045L91.7945 44.8345H96.7008H96.6924Z" fill="black"/>
<path d="M102.095 57.1933C100.999 56.5935 100.131 55.7741 99.4987 54.7434C98.8664 53.7128 98.5547 52.5893 98.5547 51.3644C98.5547 50.1394 98.8664 48.9736 99.4987 47.943C100.131 46.904 100.999 46.0845 102.103 45.4763C103.208 44.8681 104.438 44.564 105.796 44.564C107.153 44.564 108.384 44.8681 109.488 45.4763C110.592 46.0845 111.469 46.904 112.101 47.943C112.733 48.9821 113.054 50.1226 113.054 51.3644C113.054 52.6062 112.733 53.7213 112.093 54.7519C111.452 55.7825 110.575 56.5935 109.462 57.1933C108.35 57.7931 107.111 58.0888 105.754 58.0888C104.397 58.0888 103.182 57.7846 102.087 57.1848L102.095 57.1933ZM107.035 53.3665C107.406 53.1637 107.701 52.885 107.911 52.5386C108.122 52.1838 108.223 51.7868 108.223 51.3475C108.223 50.9082 108.122 50.4942 107.911 50.1394C107.701 49.7846 107.406 49.5059 107.035 49.3031C106.664 49.1004 106.251 48.999 105.796 48.999C105.34 48.999 104.927 49.1004 104.557 49.3031C104.186 49.5059 103.89 49.7846 103.68 50.1394C103.469 50.4942 103.368 50.8998 103.368 51.3475C103.368 51.7952 103.469 52.1838 103.68 52.5386C103.89 52.8934 104.186 53.1722 104.557 53.3665C104.927 53.5692 105.34 53.6706 105.796 53.6706C106.251 53.6706 106.664 53.5692 107.035 53.3665Z" fill="black"/>
<path d="M125.318 45.4757C126.355 46.0755 127.181 46.8949 127.796 47.9255C128.412 48.9561 128.715 50.0713 128.715 51.2877C128.715 52.5042 128.412 53.6362 127.796 54.6668C127.181 55.6974 126.363 56.5169 125.326 57.1251C124.289 57.7333 123.16 58.0375 121.938 58.0375C120.935 58.0375 120.058 57.8094 119.282 57.3532V62.0079H114.41V44.8337H117.841L118.507 45.8474C119.409 44.9942 120.547 44.5718 121.929 44.5718C123.143 44.5718 124.273 44.8759 125.31 45.4757H125.318ZM122.713 53.3405C123.076 53.1462 123.362 52.8759 123.573 52.5295C123.784 52.1832 123.885 51.7777 123.885 51.3299C123.885 50.8822 123.775 50.4767 123.564 50.1135C123.354 49.7502 123.059 49.4715 122.688 49.2687C122.317 49.066 121.904 48.9646 121.449 48.9646C120.994 48.9646 120.597 49.066 120.218 49.2687C119.847 49.4715 119.552 49.7587 119.341 50.1135C119.13 50.4683 119.029 50.8738 119.029 51.3215C119.029 51.7693 119.139 52.1578 119.35 52.5127C119.56 52.859 119.856 53.1378 120.226 53.3321C120.597 53.5264 121.01 53.6277 121.465 53.6277C121.921 53.6277 122.342 53.5348 122.705 53.3405H122.713Z" fill="black"/>
<path d="M141.216 45.4761C142.312 46.0843 143.172 46.9037 143.779 47.9428C144.394 48.9819 144.698 50.1223 144.698 51.3641C144.698 52.6059 144.385 53.721 143.77 54.7517C143.155 55.7823 142.287 56.5933 141.174 57.1931C140.061 57.7928 138.78 58.0885 137.347 58.0885C135.914 58.0885 134.675 57.7844 133.57 57.1846C132.466 56.5848 131.606 55.7654 130.991 54.7347C130.376 53.7041 130.072 52.5806 130.072 51.3557V46.8699C130.072 45.3662 130.317 44.0568 130.805 42.9248C131.294 41.8013 132.003 40.9058 132.921 40.2469C133.849 39.588 134.927 39.1571 136.201 38.9037C137.591 38.6334 140.247 38.1265 140.98 37.9829L142.169 41.6323C141.301 41.8942 138.164 42.5616 137.389 42.7897C136.732 42.984 136.032 43.2374 135.636 43.626C135.24 44.0146 134.978 44.5637 134.835 45.2902C135.56 44.8002 136.445 44.5553 137.474 44.5553C138.873 44.5553 140.12 44.8594 141.216 45.4676V45.4761ZM138.696 53.4676C139.075 53.2564 139.37 52.9692 139.581 52.5975C139.791 52.2258 139.893 51.8119 139.893 51.3472C139.893 50.8826 139.783 50.4433 139.572 50.0716C139.353 49.6915 139.058 49.4043 138.679 49.1931C138.299 48.9819 137.869 48.8805 137.389 48.8805C136.909 48.8805 136.462 48.9819 136.083 49.1931C135.695 49.4043 135.4 49.6915 135.18 50.0632C134.97 50.4349 134.86 50.8657 134.86 51.3472C134.86 51.8287 134.97 52.2342 135.189 52.5975C135.408 52.9692 135.712 53.2564 136.099 53.4676C136.487 53.6788 136.917 53.7802 137.389 53.7802C137.861 53.7802 138.308 53.6788 138.687 53.4676H138.696Z" fill="black"/>
<path d="M160.082 44.8337V51.9973H160.073V57.7249H156.491L155.968 56.7703C155.058 57.6151 153.92 58.0375 152.563 58.0375C151.34 58.0375 150.211 57.7333 149.174 57.1251C148.137 56.5169 147.311 55.6974 146.704 54.6668C146.089 53.6362 145.785 52.5042 145.785 51.2877C145.785 50.0713 146.089 48.9561 146.704 47.9255C147.319 46.8949 148.145 46.0839 149.182 45.4757C150.219 44.8675 151.349 44.5718 152.563 44.5718C153.928 44.5718 155.058 44.9942 155.968 45.8389L156.676 44.8421H160.082V44.8337ZM154.257 53.3405C154.628 53.1462 154.923 52.8675 155.133 52.5211C155.344 52.1747 155.454 51.7777 155.454 51.3299C155.454 50.8822 155.353 50.4767 155.142 50.1219C154.931 49.7671 154.636 49.4799 154.265 49.2772C153.895 49.0744 153.481 48.9731 153.035 48.9731C152.588 48.9731 152.166 49.0744 151.795 49.2772C151.425 49.4799 151.13 49.7587 150.919 50.1219C150.708 50.4852 150.598 50.8907 150.598 51.3384C150.598 51.7861 150.7 52.1916 150.911 52.538C151.121 52.8843 151.408 53.1547 151.77 53.349C152.133 53.5433 152.546 53.6362 153.009 53.6362C153.473 53.6362 153.878 53.5348 154.249 53.3405H154.257Z" fill="black"/>
<path d="M167.535 57.7173H162.713V44.8345H167.535V48.881H171.336V44.8345H176.167V57.7173H171.336V53.1217H167.535V57.7173Z" fill="black"/>
<path d="M183.617 57.7173H178.795V44.8345H183.617V48.9485H184.594L186.5 44.8345H192.114L188.312 50.9253L192.763 57.7257H187.208L184.578 53.3582H183.608V57.7257L183.617 57.7173Z" fill="black"/>
<path d="M43.407 39.7734H33.0892L21.2793 58.7302H31.5887L43.407 39.7734Z" fill="#FFEC00"/>
<path d="M29.1277 39.7734H18.8015L7 58.7302H17.3094L29.1277 39.7734Z" fill="#FFEC00"/>
</g>
</svg>
